<mxfile host="app.diagrams.net" agent="Mozilla/5.0 (Windows NT 10.0; Win64; x64) AppleWebKit/537.36 (KHTML, like Gecko) Chrome/128.0.0.0 Safari/537.36" version="27.1.1">
  <diagram name="Página-1" id="rk3u-pkUwNeuGYHQSxfD">
    <mxGraphModel grid="1" page="1" gridSize="10" guides="1" tooltips="1" connect="1" arrows="1" fold="1" pageScale="1" pageWidth="2000" pageHeight="2000" math="0" shadow="0">
      <root>
        <mxCell id="0" />
        <mxCell id="1" parent="0" />
        <mxCell id="xZZ4K-Ei2gKPCc089Ihm-9" value="1. acessarTelaCadastro()" style="verticalAlign=bottom;edgeStyle=elbowEdgeStyle;elbow=vertical;curved=0;rounded=0;endArrow=block;" edge="1" parent="1">
          <mxGeometry relative="1" as="geometry">
            <Array as="points">
              <mxPoint x="343" y="127" />
            </Array>
            <mxPoint x="36.57142857142867" y="127" as="sourcePoint" />
            <mxPoint x="573.4999999999998" y="126.99999999999989" as="targetPoint" />
          </mxGeometry>
        </mxCell>
        <mxCell id="xZZ4K-Ei2gKPCc089Ihm-11" value="2. exibirFormulario()" style="verticalAlign=bottom;edgeStyle=elbowEdgeStyle;elbow=vertical;curved=0;rounded=0;dashed=1;dashPattern=2 3;endArrow=block;" edge="1" parent="1">
          <mxGeometry relative="1" as="geometry">
            <Array as="points">
              <mxPoint x="346" y="179" />
            </Array>
            <mxPoint x="573.4999999999998" y="179" as="sourcePoint" />
            <mxPoint x="36.57142857142867" y="178.9999999999999" as="targetPoint" />
          </mxGeometry>
        </mxCell>
        <mxCell id="xZZ4K-Ei2gKPCc089Ihm-13" value="3. cadastrarVantagem(título, valor, descrição, imagem)" style="verticalAlign=bottom;edgeStyle=elbowEdgeStyle;elbow=vertical;curved=0;rounded=0;endArrow=block;" edge="1" parent="1">
          <mxGeometry relative="1" as="geometry">
            <Array as="points">
              <mxPoint x="343" y="231" />
            </Array>
            <mxPoint x="36.57142857142867" y="231" as="sourcePoint" />
            <mxPoint x="573.4999999999998" y="231" as="targetPoint" />
          </mxGeometry>
        </mxCell>
        <mxCell id="xZZ4K-Ei2gKPCc089Ihm-15" value="4. cadastrarVantagem(título, valor, descrição, imagem)" style="verticalAlign=bottom;edgeStyle=elbowEdgeStyle;elbow=vertical;curved=0;rounded=0;endArrow=block;" edge="1" parent="1" source="xZZ4K-Ei2gKPCc089Ihm-37">
          <mxGeometry relative="1" as="geometry">
            <Array as="points">
              <mxPoint x="809" y="283" />
            </Array>
            <mxPoint x="573.25" y="283" as="sourcePoint" />
            <mxPoint x="1026" y="283" as="targetPoint" />
          </mxGeometry>
        </mxCell>
        <mxCell id="xZZ4K-Ei2gKPCc089Ihm-17" value="5. salvarVantagem(título, valor, descrição, imagem)" style="verticalAlign=bottom;edgeStyle=elbowEdgeStyle;elbow=vertical;curved=0;rounded=0;endArrow=block;" edge="1" parent="1">
          <mxGeometry relative="1" as="geometry">
            <Array as="points">
              <mxPoint x="1248" y="381" />
            </Array>
            <mxPoint x="1025.9473684210525" y="381" as="sourcePoint" />
            <mxPoint x="1452" y="381" as="targetPoint" />
          </mxGeometry>
        </mxCell>
        <mxCell id="xZZ4K-Ei2gKPCc089Ihm-19" value="6. new(título, valor, descrição, imagem)" style="verticalAlign=bottom;edgeStyle=elbowEdgeStyle;elbow=vertical;curved=0;rounded=0;endArrow=block;" edge="1" parent="1">
          <mxGeometry relative="1" as="geometry">
            <Array as="points">
              <mxPoint x="1633" y="433" />
            </Array>
            <mxPoint x="1452" y="433" as="sourcePoint" />
            <mxPoint x="1795.5000000000005" y="433" as="targetPoint" />
          </mxGeometry>
        </mxCell>
        <mxCell id="xZZ4K-Ei2gKPCc089Ihm-21" value="7. sucesso" style="verticalAlign=bottom;edgeStyle=elbowEdgeStyle;elbow=vertical;curved=0;rounded=0;dashed=1;dashPattern=2 3;endArrow=block;" edge="1" parent="1" target="xZZ4K-Ei2gKPCc089Ihm-46">
          <mxGeometry relative="1" as="geometry">
            <Array as="points">
              <mxPoint x="1636" y="485" />
            </Array>
            <mxPoint x="1795.5000000000005" y="485" as="sourcePoint" />
            <mxPoint x="1452" y="485" as="targetPoint" />
          </mxGeometry>
        </mxCell>
        <mxCell id="xZZ4K-Ei2gKPCc089Ihm-23" value="8. sucesso" style="verticalAlign=bottom;edgeStyle=elbowEdgeStyle;elbow=vertical;curved=0;rounded=0;dashed=1;dashPattern=2 3;endArrow=block;" edge="1" parent="1" target="xZZ4K-Ei2gKPCc089Ihm-41">
          <mxGeometry relative="1" as="geometry">
            <Array as="points">
              <mxPoint x="1251" y="537" />
            </Array>
            <mxPoint x="1452" y="537" as="sourcePoint" />
            <mxPoint x="1025.9473684210525" y="537" as="targetPoint" />
          </mxGeometry>
        </mxCell>
        <mxCell id="xZZ4K-Ei2gKPCc089Ihm-25" value="9. sucesso" style="verticalAlign=bottom;edgeStyle=elbowEdgeStyle;elbow=vertical;curved=0;rounded=0;dashed=1;dashPattern=2 3;endArrow=block;" edge="1" parent="1" target="xZZ4K-Ei2gKPCc089Ihm-37">
          <mxGeometry relative="1" as="geometry">
            <Array as="points">
              <mxPoint x="812" y="589" />
            </Array>
            <mxPoint x="1026" y="589" as="sourcePoint" />
            <mxPoint x="573.25" y="589" as="targetPoint" />
          </mxGeometry>
        </mxCell>
        <mxCell id="xZZ4K-Ei2gKPCc089Ihm-27" value="10. exibeMensagem(&quot;Vantagem cadastrada com sucesso&quot;)" style="verticalAlign=bottom;edgeStyle=elbowEdgeStyle;elbow=vertical;curved=0;rounded=0;endArrow=block;dashed=1;" edge="1" parent="1">
          <mxGeometry relative="1" as="geometry">
            <Array as="points">
              <mxPoint x="346" y="641" />
            </Array>
            <mxPoint x="573.4999999999998" y="641" as="sourcePoint" />
            <mxPoint x="36.57142857142867" y="641" as="targetPoint" />
          </mxGeometry>
        </mxCell>
        <mxCell id="xZZ4K-Ei2gKPCc089Ihm-29" value="5. erro(&quot;Dados inválidos&quot;)" style="verticalAlign=bottom;edgeStyle=elbowEdgeStyle;elbow=vertical;curved=0;rounded=0;dashed=1;dashPattern=2 3;endArrow=block;" edge="1" parent="1" target="xZZ4K-Ei2gKPCc089Ihm-37">
          <mxGeometry relative="1" as="geometry">
            <Array as="points">
              <mxPoint x="812" y="739" />
            </Array>
            <mxPoint x="1026" y="739" as="sourcePoint" />
            <mxPoint x="573.25" y="739" as="targetPoint" />
          </mxGeometry>
        </mxCell>
        <mxCell id="xZZ4K-Ei2gKPCc089Ihm-31" value="6. exibeMensagem(&quot;Erro no cadastro da vantagem&quot;)" style="verticalAlign=bottom;edgeStyle=elbowEdgeStyle;elbow=vertical;curved=0;rounded=0;endArrow=block;dashed=1;" edge="1" parent="1">
          <mxGeometry relative="1" as="geometry">
            <Array as="points">
              <mxPoint x="346" y="791" />
            </Array>
            <mxPoint x="573.4999999999998" y="791" as="sourcePoint" />
            <mxPoint x="36.57142857142867" y="791" as="targetPoint" />
          </mxGeometry>
        </mxCell>
        <mxCell id="xZZ4K-Ei2gKPCc089Ihm-33" value="Empresa" style="shape=umlActor;verticalLabelPosition=bottom;verticalAlign=top;html=1;outlineConnect=0;" vertex="1" parent="1">
          <mxGeometry x="16" y="-10" width="30" height="60" as="geometry" />
        </mxCell>
        <mxCell id="xZZ4K-Ei2gKPCc089Ihm-34" value="" style="rounded=0;whiteSpace=wrap;html=1;" vertex="1" parent="1">
          <mxGeometry x="26" y="110" width="10" height="710" as="geometry" />
        </mxCell>
        <mxCell id="xZZ4K-Ei2gKPCc089Ihm-35" value=":VantagemView" style="rounded=0;whiteSpace=wrap;html=1;" vertex="1" parent="1">
          <mxGeometry x="520" y="30" width="120" height="60" as="geometry" />
        </mxCell>
        <mxCell id="xZZ4K-Ei2gKPCc089Ihm-37" value="" style="rounded=0;whiteSpace=wrap;html=1;" vertex="1" parent="1">
          <mxGeometry x="575" y="110" width="10" height="720" as="geometry" />
        </mxCell>
        <mxCell id="xZZ4K-Ei2gKPCc089Ihm-38" value="" style="endArrow=none;html=1;rounded=0;entryX=0.5;entryY=1;entryDx=0;entryDy=0;dashed=1;dashPattern=8 8;" edge="1" parent="1" target="xZZ4K-Ei2gKPCc089Ihm-37">
          <mxGeometry width="50" height="50" relative="1" as="geometry">
            <mxPoint x="580" y="920" as="sourcePoint" />
            <mxPoint x="430" y="720" as="targetPoint" />
          </mxGeometry>
        </mxCell>
        <mxCell id="xZZ4K-Ei2gKPCc089Ihm-40" style="edgeStyle=orthogonalEdgeStyle;rounded=0;orthogonalLoop=1;jettySize=auto;html=1;endArrow=none;startFill=0;dashed=1;dashPattern=8 8;" edge="1" parent="1" source="xZZ4K-Ei2gKPCc089Ihm-39" target="xZZ4K-Ei2gKPCc089Ihm-41">
          <mxGeometry relative="1" as="geometry">
            <mxPoint x="1040" y="230" as="targetPoint" />
          </mxGeometry>
        </mxCell>
        <mxCell id="xZZ4K-Ei2gKPCc089Ihm-39" value=":VantagemController" style="rounded=0;whiteSpace=wrap;html=1;" vertex="1" parent="1">
          <mxGeometry x="972" y="30" width="120" height="60" as="geometry" />
        </mxCell>
        <mxCell id="xZZ4K-Ei2gKPCc089Ihm-41" value="" style="rounded=0;whiteSpace=wrap;html=1;" vertex="1" parent="1">
          <mxGeometry x="1027" y="230" width="10" height="530" as="geometry" />
        </mxCell>
        <mxCell id="xZZ4K-Ei2gKPCc089Ihm-42" value="" style="endArrow=none;html=1;rounded=0;entryX=0.5;entryY=1;entryDx=0;entryDy=0;dashed=1;dashPattern=8 8;" edge="1" parent="1" target="xZZ4K-Ei2gKPCc089Ihm-41">
          <mxGeometry width="50" height="50" relative="1" as="geometry">
            <mxPoint x="1032" y="920" as="sourcePoint" />
            <mxPoint x="1030" y="700" as="targetPoint" />
          </mxGeometry>
        </mxCell>
        <mxCell id="xZZ4K-Ei2gKPCc089Ihm-45" style="edgeStyle=orthogonalEdgeStyle;rounded=0;orthogonalLoop=1;jettySize=auto;html=1;endArrow=none;startFill=0;dashed=1;dashPattern=8 8;" edge="1" parent="1" source="xZZ4K-Ei2gKPCc089Ihm-43" target="xZZ4K-Ei2gKPCc089Ihm-46">
          <mxGeometry relative="1" as="geometry">
            <mxPoint x="1460" y="250" as="targetPoint" />
          </mxGeometry>
        </mxCell>
        <mxCell id="xZZ4K-Ei2gKPCc089Ihm-43" value=":VantagemRepository" style="rounded=0;whiteSpace=wrap;html=1;" vertex="1" parent="1">
          <mxGeometry x="1398" y="30" width="120" height="60" as="geometry" />
        </mxCell>
        <mxCell id="xZZ4K-Ei2gKPCc089Ihm-46" value="" style="rounded=0;whiteSpace=wrap;html=1;" vertex="1" parent="1">
          <mxGeometry x="1453" y="330" width="10" height="250" as="geometry" />
        </mxCell>
        <mxCell id="xZZ4K-Ei2gKPCc089Ihm-48" value="" style="endArrow=none;html=1;rounded=0;entryX=0.5;entryY=1;entryDx=0;entryDy=0;dashed=1;dashPattern=8 8;" edge="1" parent="1" target="xZZ4K-Ei2gKPCc089Ihm-46">
          <mxGeometry width="50" height="50" relative="1" as="geometry">
            <mxPoint x="1458" y="920" as="sourcePoint" />
            <mxPoint x="1410" y="550" as="targetPoint" />
          </mxGeometry>
        </mxCell>
        <mxCell id="xZZ4K-Ei2gKPCc089Ihm-50" style="edgeStyle=orthogonalEdgeStyle;rounded=0;orthogonalLoop=1;jettySize=auto;html=1;endArrow=none;startFill=0;dashed=1;dashPattern=8 8;" edge="1" parent="1" source="xZZ4K-Ei2gKPCc089Ihm-53" target="xZZ4K-Ei2gKPCc089Ihm-51">
          <mxGeometry relative="1" as="geometry">
            <mxPoint x="1780" y="190" as="targetPoint" />
            <mxPoint x="1802" y="80" as="sourcePoint" />
          </mxGeometry>
        </mxCell>
        <mxCell id="xZZ4K-Ei2gKPCc089Ihm-51" value="" style="rounded=0;whiteSpace=wrap;html=1;" vertex="1" parent="1">
          <mxGeometry x="1797" y="400" width="10" height="110" as="geometry" />
        </mxCell>
        <mxCell id="xZZ4K-Ei2gKPCc089Ihm-52" value="" style="endArrow=none;html=1;rounded=0;entryX=0.5;entryY=1;entryDx=0;entryDy=0;dashed=1;dashPattern=8 8;" edge="1" parent="1" target="xZZ4K-Ei2gKPCc089Ihm-51">
          <mxGeometry width="50" height="50" relative="1" as="geometry">
            <mxPoint x="1802" y="910" as="sourcePoint" />
            <mxPoint x="1430" y="700" as="targetPoint" />
          </mxGeometry>
        </mxCell>
        <mxCell id="xZZ4K-Ei2gKPCc089Ihm-53" value=":VantagemModel" style="rounded=0;whiteSpace=wrap;html=1;" vertex="1" parent="1">
          <mxGeometry x="1742" y="30" width="120" height="60" as="geometry" />
        </mxCell>
        <mxCell id="rGUhBXRb5seY83wAU2Kh-1" value="" style="endArrow=none;html=1;rounded=0;exitX=0.5;exitY=0;exitDx=0;exitDy=0;dashed=1;dashPattern=8 8;" edge="1" parent="1" source="xZZ4K-Ei2gKPCc089Ihm-34">
          <mxGeometry width="50" height="50" relative="1" as="geometry">
            <mxPoint x="160" y="190" as="sourcePoint" />
            <mxPoint x="31" y="80" as="targetPoint" />
          </mxGeometry>
        </mxCell>
        <mxCell id="rGUhBXRb5seY83wAU2Kh-4" value="" style="endArrow=none;html=1;rounded=0;entryX=0.5;entryY=1;entryDx=0;entryDy=0;dashed=1;dashPattern=8 8;" edge="1" parent="1">
          <mxGeometry width="50" height="50" relative="1" as="geometry">
            <mxPoint x="31" y="910" as="sourcePoint" />
            <mxPoint x="31" y="820" as="targetPoint" />
          </mxGeometry>
        </mxCell>
        <mxCell id="rGUhBXRb5seY83wAU2Kh-5" value="" style="endArrow=none;html=1;rounded=0;entryX=0.5;entryY=1;entryDx=0;entryDy=0;exitX=0.5;exitY=0;exitDx=0;exitDy=0;dashed=1;dashPattern=8 8;" edge="1" parent="1" source="xZZ4K-Ei2gKPCc089Ihm-37" target="xZZ4K-Ei2gKPCc089Ihm-35">
          <mxGeometry width="50" height="50" relative="1" as="geometry">
            <mxPoint x="610" y="230" as="sourcePoint" />
            <mxPoint x="660" y="180" as="targetPoint" />
          </mxGeometry>
        </mxCell>
        <mxCell id="xZZ4K-Ei2gKPCc089Ihm-6" value="alt" style="shape=umlFrame;pointerEvents=0;dropTarget=0;strokeColor=#000000;height=20;width=30" vertex="1" parent="1">
          <mxGeometry x="60" y="303" width="1746" height="508" as="geometry" />
        </mxCell>
        <mxCell id="xZZ4K-Ei2gKPCc089Ihm-8" value="[se dados forem inválidos]" style="shape=line;dashed=1;whiteSpace=wrap;verticalAlign=top;labelPosition=center;verticalLabelPosition=middle;align=center;strokeColor=#8E8E8E;fontSize=15;" vertex="1" parent="xZZ4K-Ei2gKPCc089Ihm-6">
          <mxGeometry y="363" width="1746" height="4" as="geometry" />
        </mxCell>
        <mxCell id="xZZ4K-Ei2gKPCc089Ihm-7" value="[se dados forem válidos]" style="text;strokeColor=none;fillColor=none;align=center;verticalAlign=middle;whiteSpace=wrap;fontSize=15;spacingLeft=0;" vertex="1" parent="xZZ4K-Ei2gKPCc089Ihm-6">
          <mxGeometry x="15.196272727272724" width="1715.6037272727272" height="20" as="geometry" />
        </mxCell>
      </root>
    </mxGraphModel>
  </diagram>
</mxfile>
